<svg xmlns="http://www.w3.org/2000/svg" version="1.1" xmlns:xlink="http://www.w3.org/1999/xlink" width="120" height="120" x="0" y="0" viewBox="0 0 15 15" style="enable-background:new 0 0 512 512" xml:space="preserve" class=""><g><path cx="52" cy="14" r="10" fill="#faa307" opacity="1" data-original="#faa307" d="M14.531 3.281A2.344 2.344 0 0 1 12.188 5.625A2.344 2.344 0 0 1 9.844 3.281A2.344 2.344 0 0 1 14.531 3.281z"/><path cx="52" cy="14" r="5" fill="#ff959d" opacity="1" data-original="#ff959d" d="M13.359 3.281A1.172 1.172 0 0 1 12.188 4.453A1.172 1.172 0 0 1 11.016 3.281A1.172 1.172 0 0 1 13.359 3.281z"/><path fill="#ff7a7e" d="M12.188 2.109c-0.094 0 -0.188 0.023 -0.258 0.023 -0.281 0.234 -0.445 0.539 -0.445 0.914 0 0.656 0.516 1.172 1.172 1.172 0.094 0 0.188 -0.023 0.258 -0.023C13.172 3.984 13.359 3.656 13.359 3.281c0 -0.656 -0.516 -1.172 -1.172 -1.172z" opacity="1" data-original="#ff7a7e"/><path cx="12" cy="14" r="10" fill="#f48c06" opacity="1" data-original="#f48c06" d="M5.156 3.281A2.344 2.344 0 0 1 2.813 5.625A2.344 2.344 0 0 1 0.469 3.281A2.344 2.344 0 0 1 5.156 3.281z"/><path cx="12" cy="14" r="5" fill="#ff959d" opacity="1" data-original="#ff959d" d="M3.984 3.281A1.172 1.172 0 0 1 2.813 4.453A1.172 1.172 0 0 1 1.641 3.281A1.172 1.172 0 0 1 3.984 3.281z"/><path fill="#ff7a7e" d="M2.813 2.109c-0.094 0 -0.188 0.023 -0.258 0.023C2.273 2.367 2.109 2.672 2.109 3.047c0 0.656 0.516 1.172 1.172 1.172 0.094 0 0.188 -0.023 0.258 -0.023C3.797 3.984 3.984 3.656 3.984 3.281c0 -0.656 -0.516 -1.172 -1.172 -1.172z" opacity="1" data-original="#ff7a7e"/><path fill="#f48c06" d="M13.828 10.078c0 1.945 -1.781 3.516 -3.984 3.516 -0.727 0.305 -1.523 0.469 -2.344 0.469s-1.617 -0.164 -2.344 -0.469c-2.203 0 -3.984 -1.57 -3.984 -3.516 0 -0.469 0.094 -0.914 0.281 -1.313 -0.023 -0.258 -0.047 -0.516 -0.047 -0.797C1.406 4.594 4.125 1.875 7.5 1.875s6.094 2.719 6.094 6.094c0 0.281 -0.023 0.539 -0.047 0.797 0.188 0.398 0.281 0.844 0.281 1.313z" opacity="1" data-original="#f48c06"/><path fill="#faa307" d="M13.594 7.969C13.594 4.594 10.875 1.875 7.5 1.875c-0.516 0 -1.031 0.07 -1.523 0.188 -0.516 0.938 -0.82 2.039 -0.82 3.211C5.156 8.695 7.734 11.484 10.898 11.484c1.055 0 2.016 -0.305 2.883 -0.844 0.023 -0.188 0.047 -0.375 0.047 -0.563 0 -0.469 -0.094 -0.914 -0.281 -1.313 0.023 -0.258 0.047 -0.516 0.047 -0.797z" opacity="1" data-original="#faa307"/><path fill="#e9d8a6" d="m13.547 8.695 -0.609 0.422c-0.492 0.328 -1.055 0.492 -1.641 0.492 -0.773 0 -1.523 -0.305 -2.086 -0.867L8.906 8.438H6.094l-0.305 0.305c-0.563 0.563 -1.289 0.867 -2.086 0.867 -0.586 0 -1.148 -0.164 -1.641 -0.492l-0.609 -0.422v0.07C1.266 9.164 1.172 9.609 1.172 10.078c0 1.945 1.781 3.516 3.984 3.516 0.727 0.305 1.523 0.469 2.344 0.469s1.617 -0.164 2.344 -0.469c2.203 0 3.984 -1.57 3.984 -3.516 0 -0.469 -0.094 -0.914 -0.281 -1.313v-0.07z" opacity="1" data-original="#e9d8a6"/><path fill="#fefae0" d="M13.547 8.766v-0.07l-0.609 0.422c-0.492 0.328 -1.055 0.492 -1.641 0.492 -0.773 0 -1.523 -0.305 -2.086 -0.867L8.906 8.438H6.094l-0.305 0.305c-0.492 0.492 -1.125 0.773 -1.781 0.844 0 0.117 -0.023 0.234 -0.023 0.375 0 1.453 0.586 2.789 1.57 3.773 0.609 0.211 1.266 0.328 1.945 0.328 0.82 0 1.617 -0.164 2.344 -0.469 2.203 0 3.984 -1.57 3.984 -3.516 0 -0.469 -0.094 -0.914 -0.281 -1.313z" opacity="1" data-original="#fefae0"/><path fill="#4c4c4c" d="M7.5 9.375c0.305 0 0.586 -0.117 0.797 -0.328L8.906 8.438l-0.047 -0.094C8.602 7.828 8.086 7.5 7.5 7.5s-1.102 0.328 -1.359 0.844l-0.047 0.094 0.609 0.609c0.211 0.211 0.492 0.328 0.797 0.328z" opacity="1" data-original="#4c4c4c"/><path fill="#383838" d="M5.156 6.563h1.406v0.469h-1.406zm3.281 0h1.406v0.469h-1.406z" opacity="1" data-original="#383838"/><path fill="#d1ba80" d="m5.344 11.508 0.445 1.172c0.047 0.141 0.164 0.211 0.328 0.211 0.141 0 0.258 -0.094 0.328 -0.211l0.445 -1.172m1.266 0 0.445 1.172c0.047 0.141 0.164 0.211 0.328 0.211 0.141 0 0.258 -0.094 0.328 -0.211l0.445 -1.172" opacity="1" data-original="#d1ba80"/><g fill="#4c4c4c"><path d="M7.5 3.75c0.398 0 0.703 -0.305 0.703 -0.703V1.922c-0.234 -0.023 -0.469 -0.047 -0.703 -0.047s-0.469 0.023 -0.703 0.047V3.047c0 0.398 0.305 0.703 0.703 0.703zm-2.109 -0.234c0.258 0 0.469 -0.211 0.469 -0.469V2.109c-0.328 0.094 -0.633 0.211 -0.938 0.352V3.047c0 0.258 0.211 0.469 0.469 0.469zM2.813 6.914c0 -0.328 -0.258 -0.586 -0.586 -0.586H1.641c-0.094 0.375 -0.164 0.773 -0.211 1.172h0.797c0.328 0 0.586 -0.258 0.586 -0.586zM9.609 3.516c0.258 0 0.469 -0.211 0.469 -0.469v-0.609c-0.305 -0.141 -0.609 -0.258 -0.938 -0.352v0.938c0 0.281 0.211 0.492 0.469 0.492zm3.164 2.813c-0.328 0 -0.586 0.258 -0.586 0.586s0.258 0.586 0.586 0.586h0.797c-0.023 -0.398 -0.094 -0.797 -0.211 -1.172zM8.906 11.953c-0.586 0 -1.125 -0.328 -1.406 -0.797 -0.281 0.469 -0.82 0.797 -1.406 0.797 -0.914 0 -1.641 -0.727 -1.641 -1.641h0.469c0 0.656 0.516 1.172 1.172 1.172s1.172 -0.516 1.172 -1.172c0 -0.141 0.094 -0.234 0.234 -0.234s0.234 0.094 0.234 0.234c0 0.656 0.516 1.172 1.172 1.172s1.172 -0.516 1.172 -1.172h0.469c0 0.914 -0.727 1.641 -1.641 1.641z" fill="#4c4c4c" opacity="1" data-original="#4c4c4c"/></g><path d="M14.766 3.281c0 -1.43 -1.148 -2.578 -2.578 -2.578 -0.984 0 -1.852 0.539 -2.297 1.406 -0.727 -0.305 -1.547 -0.469 -2.391 -0.469s-1.641 0.164 -2.391 0.469c-0.445 -0.867 -1.313 -1.406 -2.297 -1.406C1.383 0.703 0.234 1.852 0.234 3.281c0 0.984 0.539 1.852 1.406 2.297 -0.305 0.727 -0.469 1.547 -0.469 2.391 0 0.258 0.023 0.516 0.047 0.773C1.031 9.164 0.938 9.609 0.938 10.078c0 2.063 1.875 3.727 4.172 3.75 0.75 0.305 1.57 0.469 2.391 0.469s1.641 -0.164 2.391 -0.469C12.188 13.805 14.063 12.141 14.063 10.078c0 -0.469 -0.094 -0.914 -0.281 -1.336 0.023 -0.258 0.047 -0.516 0.047 -0.773 0 -0.844 -0.164 -1.664 -0.469 -2.391 0.867 -0.445 1.406 -1.313 1.406 -2.297zm-3.445 -0.352c0.141 -0.352 0.469 -0.586 0.867 -0.586 0.516 0 0.938 0.422 0.938 0.938 0 0.398 -0.234 0.727 -0.586 0.867 -0.352 -0.469 -0.75 -0.867 -1.219 -1.219zM13.055 6.094h-0.281c-0.445 0 -0.82 0.375 -0.82 0.82s0.375 0.82 0.82 0.82H13.359v0.234c0 0.211 -0.023 0.398 -0.023 0.609l-0.516 0.352c-0.445 0.305 -0.961 0.445 -1.5 0.445 -0.703 0 -1.406 -0.281 -1.922 -0.797l-0.281 -0.281 -0.023 -0.07c-0.328 -0.586 -0.938 -0.961 -1.594 -0.961s-1.266 0.375 -1.57 0.961l-0.023 0.07 -0.281 0.281c-0.516 0.516 -1.195 0.797 -1.922 0.797 -0.539 0 -1.055 -0.164 -1.5 -0.445l-0.516 -0.352c-0.023 -0.211 -0.047 -0.398 -0.047 -0.609v-0.234h0.586c0.445 0 0.82 -0.375 0.82 -0.82S2.672 6.094 2.227 6.094H1.945c0.469 -1.406 1.453 -2.555 2.742 -3.258v0.211c0 0.398 0.305 0.703 0.703 0.703s0.703 -0.305 0.703 -0.703V2.273c0.164 -0.047 0.305 -0.07 0.469 -0.094V3.047c0 0.516 0.422 0.938 0.938 0.938s0.938 -0.422 0.938 -0.938V2.18c0.164 0.023 0.305 0.047 0.469 0.094V3.047c0 0.398 0.305 0.703 0.703 0.703s0.703 -0.305 0.703 -0.703v-0.211c1.266 0.703 2.273 1.852 2.742 3.258zm0.258 1.172h-0.539c-0.188 0 -0.352 -0.164 -0.352 -0.352s0.164 -0.352 0.352 -0.352h0.422c0.047 0.234 0.094 0.469 0.117 0.703zm-4.688 1.125 -0.492 0.492C7.969 9.047 7.734 9.141 7.5 9.141s-0.469 -0.094 -0.633 -0.258l-0.492 -0.492c0.234 -0.398 0.656 -0.656 1.125 -0.656s0.891 0.258 1.125 0.656zM1.688 7.266c0.023 -0.234 0.07 -0.469 0.117 -0.703h0.422c0.188 0 0.352 0.164 0.352 0.352S2.414 7.266 2.227 7.266zm0.773 -3.117C2.109 4.008 1.875 3.68 1.875 3.281c0 -0.516 0.422 -0.938 0.938 -0.938 0.398 0 0.727 0.234 0.867 0.586 -0.469 0.352 -0.867 0.75 -1.219 1.219zM5.156 2.602c0.164 -0.07 0.305 -0.117 0.469 -0.188V3.047c0 0.141 -0.094 0.234 -0.234 0.234s-0.234 -0.094 -0.234 -0.234zm4.219 -0.188c0.164 0.047 0.305 0.117 0.469 0.188V3.047c0 0.141 -0.094 0.234 -0.234 0.234s-0.234 -0.094 -0.234 -0.234zm-1.406 -0.281V3.047c0 0.258 -0.211 0.469 -0.469 0.469s-0.469 -0.211 -0.469 -0.469V2.133c0.164 -0.023 0.305 -0.023 0.469 -0.023s0.305 0 0.469 0.023zM0.703 3.281c0 -1.172 0.938 -2.109 2.109 -2.109 0.797 0 1.5 0.445 1.875 1.125 -0.211 0.094 -0.422 0.211 -0.609 0.352 -0.234 -0.469 -0.703 -0.773 -1.266 -0.773 -0.773 0 -1.406 0.633 -1.406 1.406 0 0.539 0.305 1.031 0.773 1.266 -0.117 0.188 -0.234 0.398 -0.352 0.609C1.148 4.781 0.703 4.078 0.703 3.281zm9.141 10.078c-0.023 0 -0.07 0 -0.094 0.023 -0.703 0.305 -1.477 0.445 -2.25 0.445s-1.547 -0.141 -2.25 -0.445c-0.023 -0.023 -0.07 -0.023 -0.094 -0.023 -2.063 0 -3.75 -1.477 -3.75 -3.281 0 -0.352 0.07 -0.68 0.188 -1.008l0.352 0.234c0.516 0.352 1.125 0.539 1.758 0.539 0.844 0 1.641 -0.328 2.25 -0.938l0.141 -0.141 0.445 0.445C6.797 9.469 7.148 9.609 7.5 9.609s0.703 -0.141 0.961 -0.398l0.445 -0.445 0.141 0.141c0.609 0.609 1.406 0.938 2.25 0.938 0.633 0 1.242 -0.188 1.758 -0.539l0.352 -0.234c0.117 0.328 0.188 0.656 0.188 1.008 0 1.805 -1.688 3.281 -3.75 3.281zm3.328 -8.203c-0.094 -0.211 -0.211 -0.422 -0.352 -0.609 0.469 -0.234 0.773 -0.703 0.773 -1.266 0 -0.773 -0.633 -1.406 -1.406 -1.406 -0.539 0 -1.031 0.305 -1.266 0.773 -0.188 -0.117 -0.398 -0.234 -0.609 -0.352 0.352 -0.703 1.078 -1.125 1.875 -1.125 1.172 0 2.109 0.938 2.109 2.109 0 0.797 -0.445 1.5 -1.125 1.875z" fill="#000000" opacity="1" data-original="#000000"/><path d="M8.906 11.484c-0.656 0 -1.172 -0.516 -1.172 -1.172 0 -0.141 -0.094 -0.234 -0.234 -0.234s-0.234 0.094 -0.234 0.234c0 0.656 -0.516 1.172 -1.172 1.172s-1.172 -0.516 -1.172 -1.172h-0.469c0 0.539 0.281 1.031 0.68 1.336l0.422 1.102c0.094 0.234 0.305 0.375 0.539 0.375s0.445 -0.141 0.539 -0.375l0.422 -1.102c0.188 -0.141 0.328 -0.305 0.445 -0.492 0.117 0.188 0.281 0.352 0.445 0.492l0.422 1.102c0.094 0.234 0.305 0.375 0.539 0.375s0.445 -0.141 0.539 -0.375l0.422 -1.102c0.422 -0.305 0.68 -0.773 0.68 -1.336h-0.469c0 0.656 -0.516 1.172 -1.172 1.172zm-2.719 1.102c-0.023 0.07 -0.164 0.07 -0.188 0l-0.258 -0.68c0.117 0.023 0.234 0.047 0.352 0.047s0.234 -0.023 0.352 -0.047zm2.813 0c-0.023 0.07 -0.164 0.07 -0.188 0l-0.258 -0.68c0.117 0.023 0.234 0.047 0.352 0.047s0.234 -0.023 0.352 -0.047zM5.156 6.563h1.406v0.469h-1.406zm3.281 0h1.406v0.469h-1.406z" fill="#000000" opacity="1" data-original="#000000"/></g></svg>