<svg width="592" height="393" viewBox="0 0 592 393" fill="none" xmlns="http://www.w3.org/2000/svg">
<path d="M370.272 160.778L361.869 144.496C369.747 137.305 373.736 129.715 372.948 123.132C372.448 118.953 369.942 115.605 366.072 113.949C361.081 111.811 354.538 112.558 347.325 115.939C341.034 104.079 334.689 97 315.997 97H276.073C257.368 97 251.033 104.08 244.744 115.94C237.531 112.559 230.989 111.813 225.997 113.95C222.127 115.606 219.622 118.953 219.121 123.132C218.333 129.716 222.323 137.305 230.201 144.496L221.798 160.779C208.511 186.525 214.261 202.705 223.786 229.511L224.372 231.161C233.182 255.975 248.244 271.73 259.329 280.579C272.019 290.708 286.084 297 296.035 297C305.986 297 320.051 290.708 332.74 280.579C343.825 271.73 358.888 255.975 367.697 231.161L368.283 229.511C377.809 202.705 383.559 186.525 370.272 160.778ZM362.998 121.131C364.323 121.698 365.02 122.629 365.191 124.06C365.579 127.296 363.127 133.186 355.31 139.868L345.048 126.162C353.66 120.542 360.002 119.848 362.998 121.131ZM226.879 124.06C227.05 122.629 227.747 121.698 229.072 121.131C229.881 120.785 230.934 120.583 232.211 120.583C235.659 120.583 240.736 122.06 247.022 126.162L236.759 139.868C228.942 133.186 226.492 127.297 226.879 124.06ZM360.922 226.895L360.335 228.547C353.328 248.282 342.086 261.839 332.542 270.49C333.339 264.445 333.59 257.611 333.242 252.237C333.102 250.084 331.248 248.461 329.091 248.591C326.938 248.731 325.306 250.589 325.446 252.742C326.065 262.284 324.626 273.732 322.9 278.171C311.981 285.747 301.831 289.188 296.035 289.188C290.238 289.188 280.089 285.747 269.17 278.171C267.443 273.732 266.005 262.285 266.624 252.743C266.763 250.59 265.131 248.731 262.979 248.592C260.824 248.456 258.967 250.085 258.828 252.237C258.479 257.611 258.731 264.445 259.528 270.49C249.983 261.839 238.742 248.283 231.735 228.547L231.148 226.895C221.733 200.399 217.006 187.099 228.741 164.361L236.549 149.23C236.85 149.303 237.159 149.341 237.472 149.341C237.656 149.341 237.842 149.328 238.027 149.301C239.052 149.154 239.977 148.605 240.599 147.776L255.69 127.62C256.983 125.893 256.631 123.445 254.904 122.152C253.778 121.309 252.659 120.523 251.547 119.791C257.267 108.983 261.749 104.812 276.073 104.812H315.997C330.311 104.812 334.801 108.984 340.522 119.791C339.411 120.523 338.292 121.309 337.165 122.152C335.438 123.445 335.087 125.893 336.38 127.62L351.471 147.776C352.092 148.605 353.017 149.154 354.043 149.301C354.228 149.328 354.413 149.341 354.598 149.341C354.91 149.341 355.22 149.304 355.521 149.23L363.33 164.361C375.063 187.099 370.337 200.399 360.922 226.895Z" fill="#686868"/>
<path d="M342.519 181.386C342.519 181.372 342.52 181.359 342.52 181.345C343.016 140.195 327.62 130.279 320.221 125.513C314.645 121.922 310.048 123.357 305.602 124.747C302.793 125.624 299.888 126.532 296.036 126.532C292.183 126.532 289.278 125.624 286.469 124.747C282.023 123.357 277.426 121.921 271.85 125.513C264.451 130.279 249.055 140.195 249.551 181.345C249.551 181.359 249.552 181.372 249.552 181.386C249.625 184.625 250.767 187.44 252.466 190.01C249.356 200.225 248.061 208.866 248.515 216.397C248.641 218.471 250.361 220.068 252.411 220.068C252.49 220.068 252.57 220.066 252.65 220.061C254.803 219.931 256.444 218.08 256.314 215.926C255.991 210.577 256.761 204.242 258.603 197.041C259.05 197.478 259.498 197.912 259.945 198.345C263.621 201.909 267.414 205.592 268.597 209.618C269.218 215.46 271.345 220.525 274.182 223.623C273.32 229.053 274.218 233.487 276.871 236.818C280.423 241.278 286.692 243.446 296.036 243.446C305.376 243.446 311.644 241.28 315.197 236.823C317.853 233.491 318.752 229.056 317.889 223.623C320.727 220.525 322.854 215.461 323.475 209.618C324.658 205.592 328.451 201.909 332.127 198.346C332.574 197.913 333.023 197.478 333.468 197.041C335.311 204.242 336.081 210.578 335.758 215.927C335.628 218.08 337.268 219.931 339.422 220.061C339.502 220.066 339.582 220.068 339.661 220.068C341.711 220.068 343.431 218.471 343.557 216.398C344.011 208.866 342.716 200.226 339.606 190.011C341.304 187.44 342.445 184.625 342.519 181.386ZM309.087 231.953C307.168 234.361 302.654 235.634 296.035 235.634C289.414 235.634 284.9 234.36 282.981 231.951C282.003 230.722 281.57 229.028 281.676 226.823C288.433 226.555 293.049 223.722 296.035 221.214C299.021 223.722 303.625 226.551 310.395 226.818C310.501 229.028 310.068 230.723 309.087 231.953ZM326.689 192.736C325.687 193.707 324.655 194.71 323.639 195.753C322.691 185.284 319.263 179.385 316.766 175.097C315.255 172.501 314.473 171.091 314.606 169.893C314.999 166.353 315.853 166.131 320.324 165.547C320.787 165.487 321.253 165.426 321.718 165.358C323.853 165.045 325.33 163.062 325.018 160.927C324.705 158.792 322.72 157.312 320.587 157.628C320.162 157.69 319.736 157.745 319.313 157.8C315.053 158.356 307.923 159.287 306.841 169.03C306.417 172.849 308.164 175.85 310.014 179.028C313.096 184.32 317.316 191.567 315.74 208.474C315.157 214.729 312.485 218.452 311.402 219.033C305.697 219.02 302.206 216.366 299.941 214.226V206.402C301.543 206.214 303.132 205.914 304.694 205.496C306.778 204.938 308.015 202.796 307.457 200.712C306.899 198.628 304.757 197.391 302.673 197.949C298.342 199.109 293.727 199.109 289.397 197.949C287.314 197.393 285.171 198.629 284.613 200.712C284.055 202.796 285.292 204.938 287.376 205.496C288.937 205.914 290.527 206.214 292.129 206.402V214.226C289.864 216.367 286.374 219.02 280.668 219.033C279.585 218.452 276.913 214.729 276.33 208.474C274.754 191.567 278.974 184.32 282.055 179.028C283.905 175.85 285.653 172.849 285.229 169.03C284.146 159.287 277.016 158.356 272.756 157.8C272.334 157.745 271.908 157.69 271.482 157.628C269.349 157.313 267.364 158.793 267.052 160.927C266.739 163.062 268.216 165.045 270.351 165.358C270.817 165.426 271.283 165.487 271.745 165.547C276.216 166.131 277.071 166.353 277.464 169.893C277.597 171.091 276.815 172.502 275.304 175.097C272.807 179.384 269.379 185.284 268.431 195.752C267.415 194.709 266.383 193.707 265.381 192.736C261.308 188.788 257.461 185.059 257.362 181.226C256.925 144.422 269.862 136.086 276.08 132.081C278.463 130.545 280.011 130.914 284.139 132.203C287.192 133.157 290.991 134.344 296.036 134.344C301.08 134.344 304.879 133.157 307.932 132.203C312.059 130.914 313.608 130.547 315.991 132.081C322.209 136.086 335.146 144.421 334.709 181.226C334.609 185.06 330.762 188.789 326.689 192.736Z" fill="#686868"/>
<path d="M252.905 229.888H252.903C250.745 229.888 248.998 231.637 248.998 233.794C248.998 235.951 250.748 237.701 252.905 237.701C255.063 237.701 256.812 235.951 256.812 233.794C256.812 231.637 255.063 229.888 252.905 229.888Z" fill="#686868"/>
</svg>
